<?xml version="1.0" encoding="utf-8"?>
<!-- Generator: Adobe Illustrator 19.0.0, SVG Export Plug-In . SVG Version: 6.00 Build 0)  -->
<svg version="1.1" id="Layer_1" xmlns="http://www.w3.org/2000/svg" xmlns:xlink="http://www.w3.org/1999/xlink" x="0px" y="0px"
	 viewBox="214 -92.1 1024 1024" style="enable-background:new 214 -92.1 1024 1024;" xml:space="preserve">
<style type="text/css">
	.st0{fill:#FFFFFF;}
</style>
<g transform="translate(0.000000,1024.000000) scale(0.100000,-0.100000)">
	<path class="st0" d="M3750,11131.1c-8-5-41-10-72-10s-60-4-63-10c-3-5-24-10-45-10s-42-4-45-10c-3-5-21-10-40-10s-37-4-40-10
		c-3-5-19-10-36-10c-16,0-29-4-29-8s-21-14-47-21c-50-15-52-16-121-50c-24-11-50-21-58-21s-14-4-14-10c0-5-9-10-19-10
		c-11,0-21-3-23-7c-4-10-57-42-80-50c-10-3-18-9-18-14s-6-9-12-9c-7,0-29-14-48-30s-39-30-43-30s-19-11-33-25s-29-25-35-25
		c-12,0-289-277-289-290c0-6-14-24-30-42c-17-17-30-37-30-44c0-8-4-14-8-14c-5,0-15-12-23-27c-8-16-16-30-19-33c-10-10-41-65-47-82
		c-3-10-9-18-14-18s-9-9-9-20s-4-20-10-20c-5,0-10-6-10-14c0-12-14-44-51-118c-5-10-9-25-9-33s-4-15-10-15c-5,0-10-13-10-30
		c0-16-4-30-10-30c-5,0-10-13-10-29c0-17-4-33-10-36c-5-3-10-21-10-40s-4-37-10-40c-5-3-10-23-10-44c0-20-4-41-9-46
		c-19-20-23-161-27-947l-4-808h5100h5100l-4,808c-4,786-8,927-27,947c-5,5-9,28-9,52s-4,43-10,43c-5,0-10,15-10,34s-4,38-10,41
		c-5,3-10,19-10,36c0,16-4,29-10,29c-5,0-10,14-10,30c0,17-4,30-10,30c-5,0-10,7-10,15s-4,23-9,33c-37,74-51,106-51,118
		c0,8-4,14-10,14c-5,0-10,9-10,20s-4,20-9,20s-11,8-14,18c-6,17-37,72-47,82c-3,3-11,17-19,33c-8,15-18,27-23,27c-4,0-8,6-8,14
		c0,7-13,27-30,44c-16,18-30,36-30,42c0,13-277,290-289,290c-6,0-21,11-35,25s-29,25-33,25s-24,14-43,30s-40,30-47,30
		c-6,0-13,3-15,8c-4,9-57,41-80,49c-10,3-18,9-18,14s-9,9-20,9s-20,5-20,10c0,6-6,10-14,10s-34,10-58,21c-69,34-71,35-120,50
		c-27,7-48,17-48,21s-13,8-29,8c-17,0-33,5-36,10c-3,6-21,10-40,10s-37,5-40,10s-23,10-44,10c-20,0-41,4-47,9c-5,5-38,12-74,16
		C10725,11138.1,3767,11142.1,3750,11131.1z"/>
	<path class="st0" d="M7920,6772.1c-22-6-27-16-42-91c-10-47-22-146-28-220c-15-190-6-351,46-774c30-252,54-487,54-541v-41l-62,8
		c-122,15-261-12-298-59c-26-33-26-98,0-140c23-38,33-40,215-47c192-7,179,4,194-168c6-78,18-253,27-388c16-249,23-310,37-311
		c4,0,25,2,47,6c25,4,46,3,54-4c9-8,23-5,51,9c21,11,61,23,88,26l49,7l-6,76c-7,67-27,753-23,758c8,8,220,24,258,19c31-4,49-3,49,3
		c0,16,50,38,102,46c94,14,99,42,20,100c-23,16-69,63-104,103c-75,87-146,128-203,118c-37-7-42-17-47-91c-4-48-26-57-59-24
		c-17,17-20,29-16,66c2,24,12,52,21,62c19,21,21,94,6,251c-44,466-53,785-25,910c8,36,14,89,15,118c0,50-3,55-45,97
		C8202,6746.1,8025,6801.1,7920,6772.1z"/>
	<path class="st0" d="M4224,6144.1c-16-3-33-32-73-124c-151-347-234-659-257-961c-4-48-11-85-15-82c-16,9-116,189-226,404
		c-122,239-192,364-222,396c-25,27-114,39-208,29c-72-8-250-48-261-60c-14-13-8-1012,6-1130c26-213,79-440,106-457
		c19-13,168-9,221,6c58,15,126,48,173,83c28,21,32,30,32,71c0,26-9,106-20,177c-11,72-23,159-26,195l-6,65l21-25c11-14,46-70,77-125
		c100-176,217-358,259-402c39-41,44-43,98-43c32,0,99,9,150,21c50,11,120,22,154,22c70,2,71,3,97,104c26,102,36,211,46,523
		c9,295,29,480,51,480c5,0,9-7,9-16c0-27,48-235,91-392c22-81,94-310,161-509l120-363h38c64,0,192,20,238,36c23,9,47,25,53,36
		c8,15,17,18,39,13l28-6l-9,43c-6,23-30,94-55,158c-36,91-47,132-51,195c-3,50-21,135-48,230c-24,83-64,256-90,385
		c-89,451-181,784-259,939l-35,68l-113,11C4408,6151.1,4268,6153.1,4224,6144.1z"/>
	<path class="st0" d="M6945,6082.1c-32-13-203-198-268-288c-66-93-145-238-182-338c-33-87-71-243-80-328c-5-44-13-71-26-82
		c-26-24-32-64-18-121c7-27,13-121,13-210l1-160l50-84c69-115,199-247,285-288c267-129,757-112,928,32c39,33,40,46,7,102
		c-26,45-84,80-141,86c-26,2-41-6-79-41c-84-78-235-131-334-117c-177,24-322,211-323,416c-1,89,14,135,40,125c101-39,345-50,467-21
		c39,9,75,20,81,24c8,5,8,32,2,92c-13,111,5,340,33,440c11,41,25,129,29,195c5,66,13,149,19,185s11,95,11,132v66l-47,41
		c-65,55-144,96-233,120C7092,6083.1,6974,6094.1,6945,6082.1z M7037,5281.1c-3-122-10-233-17-256c-12-42-12-42-53-37
		c-99,10-127,15-131,22c-7,11,29,168,59,257c15,44,50,128,78,188c51,108,51,109,60,75C7038,5511.1,7040,5399.1,7037,5281.1z"/>
	<path class="st0" d="M5565,5893.1c-185-139-255-212-305-316c-81-170-123-422-124-741c-1-371,32-476,184-578c41-28,97-70,124-94
		c28-25,67-54,89-64c155-80,426-82,682-7c108,31,256,91,252,102c-2,5-32,29-66,53c-126,86-239,94-391,28c-113-48-164-54-224-25
		c-141,68-232,342-185,560c13,59,4,58,188,34c119-15,401-17,416-3c3,4,14,51,25,105c39,194,36,517-6,719c-22,107-52,201-72,224
		c-28,33-183,72-422,105C5711,5998.1,5672,5974.1,5565,5893.1z M5789,5484.1c20-104,24-207,11-296c-14-98-7-93-108-76l-65,12l7,59
		c3,32,17,91,30,131c29,85,95,227,106,227C5774,5541.1,5782,5515.1,5789,5484.1z"/>
	<path class="st0" d="M10845,5961.1c-27-11-72-38-100-61c-27-22-75-58-106-79c-234-162-364-496-441-1136c-22-176-24-187-46-195
		c-13-5-34-9-48-9c-39,0-74-42-74-87c0-34,7-46,65-102c42-42,68-76,75-100c5-20,10-99,10-176c0-191,21-339,91-651l32-142l36-6
		c20-3,108-3,197,1l161,6l-18,47c-22,58-62,219-81,320c-14,83-19,509-5,572c7,33,12,38,45,43c109,19,255,88,370,177
		c149,115,353,323,430,438c84,125,126,309,126,550c1,142-3,176-22,244c-41,142-93,206-184,225c-28,7-90,29-137,50
		c-127,57-234,91-283,90C10914,5980.1,10873,5971.1,10845,5961.1z M11095,5609.1c95-320-27-696-299-920c-60-50-186-131-193-125
		c-4,4,43,222,77,357c59,233,136,426,220,551c44,65,156,189,171,189C11076,5661.1,11086,5637.1,11095,5609.1z"/>
	<path class="st0" d="M8888,5444.1c-12-3-24-25-34-61c-14-47-16-84-10-212c21-508,120-923,242-1019c90-71,352-67,526,8
		c31,13,46,25,43,34c-3,7,6,24,20,37s25,29,25,36s9,15,19,19c55,17,176,191,219,313c6,17,17,32,25,32s31,15,51,34
		c32,31,40,48,65,149c39,149,55,274,48,367c-8,103-11,108-60,112c-37,3-44,7-56,36c-10,21-24,35-40,39c-14,3-59,19-99,34
		c-167,66-217,19-186-176c51-314-60-678-261-864l-48-44l-9,24c-27,71-48,323-64,766l-7,183l-71,44c-108,67-166,93-231,105
		C8935,5451.1,8918,5452.1,8888,5444.1z"/>
	<path class="st0" d="M2220,2252.1c0-11,5-23,10-26c6-3,10-19,10-36c0-16,5-29,10-29c6,0,10-13,10-30c0-16,5-30,10-30
		c6,0,10-7,10-15s4-23,9-33c37-74,51-106,51-118c0-8,5-14,10-14c6,0,10-9,10-20s5-20,10-20c6,0,10-7,10-15c0-9,9-25,20-37
		s20-28,20-35s5-13,10-13c6,0,10-6,10-13s9-23,20-35s20-25,20-30s13-23,30-40c16-18,30-36,30-42c0-13,287-300,300-300
		c6,0,24-14,42-30c17-17,37-30,44-30c8,0,14-4,14-8c0-5,12-15,28-23c15-8,29-16,32-19c10-10,65-41,83-47c9-3,17-9,17-14s9-9,20-9
		s20-4,20-10c0-5,6-10,14-10s34-10,58-21c69-34,71-35,121-50c26-7,47-17,47-21s13-8,29-8c17,0,33-5,36-10c3-6,22-10,41-10
		s34-4,34-10c0-5,19-10,43-10s47-4,53-9c5-5,38-12,74-16c85-9,7055-9,7140,0c36,4,69,11,74,16c6,5,29,9,53,9s43,5,43,10
		c0,6,15,10,34,10s38,5,41,10c3,6,19,10,36,10c16,0,29,4,29,8s21,14,48,21c49,15,51,16,120,50c24,11,50,21,58,21s14,5,14,10
		c0,6,9,10,20,10s20,4,20,9s8,11,18,14c17,6,72,37,82,47c3,3,17,11,33,19c15,8,27,18,27,23c0,4,6,8,14,8c7,0,27,14,44,30
		c18,16,36,30,42,30c13,0,300,287,300,300c0,6,14,24,30,42c17,17,30,35,30,40s9,18,20,30s20,28,20,35s5,13,10,13c6,0,10,6,10,13
		s9,23,20,35s20,28,20,37c0,8,5,15,10,15c6,0,10,9,10,20s5,20,10,20c6,0,10,6,10,14c0,12,14,44,51,118c5,10,9,25,9,33s5,15,10,15
		c6,0,10,14,10,30c0,17,5,30,10,30c6,0,10,13,10,29c0,17,5,33,10,36c6,3,10,15,10,26c0,19-58,19-5040,19S2220,2271.1,2220,2252.1z"
		/>
</g>
</svg>
