<?xml version="1.0" encoding="utf-8"?>
<!-- Generator: Adobe Illustrator 19.0.0, SVG Export Plug-In . SVG Version: 6.00 Build 0)  -->
<svg version="1.1" id="Layer_1" xmlns="http://www.w3.org/2000/svg" xmlns:xlink="http://www.w3.org/1999/xlink" x="0px" y="0px"
	 viewBox="0 0 425 51.3" style="enable-background:new 0 0 425 51.3;" xml:space="preserve">
<style type="text/css">
	.st0{fill:#FFFFFF;}
</style>
<g id="XMLID_2_">
	<g id="XMLID_14_">
		<path id="XMLID_26_" class="st0" d="M34.6,17.8c0,7-3.1,10-11,10h-19v23.4H0V0h23.7c7.9,0,11,3,11,10V17.8z M30.1,10.8
			c0-4.7-1.3-6.6-6.9-6.6H4.7v19.6h18.5c5.6,0,6.9-2.1,6.9-6.7V10.8z"/>
		<path id="XMLID_23_" class="st0" d="M50.8,51.3c-7.9,0-10.9-3-10.9-10V10c0-7,3.1-10,10.9-10h15.5c7.9,0,11,3,11,10v31.2
			c0,7-3.1,10-11,10H50.8z M65.7,47c5.6,0,6.9-1.9,6.9-6.5V10.8c0-4.7-1.3-6.6-6.9-6.6H51.4c-5.6,0-6.9,1.9-6.9,6.6v29.7
			c0,4.6,1.3,6.5,6.9,6.5H65.7z"/>
		<path id="XMLID_20_" class="st0" d="M112.8,51.3L112.8,51.3l-9.1-23.4H87.4v23.4h-4.6V0h23.5c7.9,0,11,3,11,10v7.6
			c0,5.9-2.4,9-8.9,9.4l9.4,24.2h-0.5H112.8z M105.9,23.8c5.6,0,6.9-1.9,6.9-6.6v-6.4c0-4.7-1.3-6.6-6.9-6.6H87.4v19.6H105.9z"/>
		<path id="XMLID_18_" class="st0" d="M142.7,4.2v47.1H138V4.2h-18.2V0h41v4.2H142.7z"/>
		<path id="XMLID_15_" class="st0" d="M174.4,51.3c-7.9,0-10.9-3-10.9-10V10c0-7,3.1-10,10.9-10H190c7.9,0,10.9,3,10.9,10v31.2
			c0,7-3.1,10-10.9,10H174.4z M189.4,47c5.6,0,6.9-1.9,6.9-6.5V10.8c0-4.7-1.3-6.6-6.9-6.6H175c-5.6,0-6.9,1.9-6.9,6.6v29.7
			c0,4.6,1.3,6.5,6.9,6.5H189.4z"/>
	</g>
	<g id="XMLID_3_">
		<path id="XMLID_12_" class="st0" d="M250.4,39.4c0,8.3-5,11.8-13.6,11.8h-11c-8.6,0-13.6-3.5-13.6-11.8V11.8
			c0-8.3,5-11.8,13.6-11.8h11c8.6,0,13.6,3.5,13.6,11.8v3.9l-10.5,2.7v-4.7c0-2.8-1.2-4.1-4.6-4.1h-8.2c-3.4,0-4.6,1.3-4.6,4.1v23.7
			c0,2.8,1.2,4,4.6,4h8.2c3.4,0,4.6-1.3,4.6-4V32l10.5,3V39.4z"/>
		<path id="XMLID_10_" class="st0" d="M345.8,51.3V0h35.8v9.7h-25.2v10.6H377v9.5h-20.5v11.7h25.2v9.8H345.8z"/>
		<path id="XMLID_8_" class="st0" d="M397.8,37.4c0,2.8,1.2,4,4.6,4h7.5c3.4,0,4.6-1.3,4.6-4V34c0-2.8-1.2-4-4.6-4h-9.5
			c-8.6,0-13.1-3.8-13.1-12.2v-5.6c0-8.3,5.6-12.1,14.2-12.1h9.8C420,0,425,3.5,425,11.8v1l-10.5,2.7v-1.9c0-2.8-1.2-4.1-4.6-4.1
			h-7.5c-3.4,0-4.6,1.3-4.6,4.1v2.7c0,2.8,1.2,4,4.6,4h9.4c8.6,0,13.1,3.8,13.1,12.1v6.6c0,8.4-5.5,12.1-14.2,12.1h-9.9
			c-8.6,0-13.6-3.5-13.6-11.8v-1.3l10.6-2.7V37.4z"/>
		<g id="XMLID_5_">
			<path id="XMLID_7_" class="st0" d="M257,11.8v8.8l-4.9,4.9l4.9,4.9v9c0,8.3,5,11.8,13.6,11.8h1.1v-9.8c-3-0.1-4.2-1.4-4.2-4V13.7
				c0-2.7,1.1-3.9,4.2-4V0h-1.1C262.1,0,257,3.5,257,11.8z"/>
			<path id="XMLID_6_" class="st0" d="M293,39.4v-8.8l4.9-4.9l-4.9-4.9v-9C293,3.5,288,0,279.4,0l-1.1,0v9.8c3,0.1,4.2,1.4,4.2,4
				v23.7c0,2.7-1.1,3.9-4.2,4v9.7h1.1C288,51.3,293,47.8,293,39.4z"/>
		</g>
		<path id="XMLID_4_" class="st0" d="M324.8,0h-25.1v13.3v2.4l10.6,2.7v-4.7c0,0,0,0,0,0v-4h12.8c3.4,0,4.6,1.3,4.6,4.1v23.7
			c0,2.8-1.2,4-4.6,4h-12.8V36h0V32l-10.6,3V36v15.3h25.1c8.6,0,13.3-3.5,13.3-11.8V11.8C338.2,3.5,333.5,0,324.8,0z"/>
	</g>
</g>
</svg>
